<svg width="275" height="132" viewBox="0 0 275 132" fill="none" xmlns="http://www.w3.org/2000/svg">
<path d="M28.5452 65.28H28.3452C28.1052 65.8133 27.8252 66.3333 27.5052 66.84C27.1852 67.3467 26.7718 67.8 26.2652 68.2C25.7852 68.5733 25.1985 68.88 24.5052 69.12C23.8118 69.36 22.9852 69.48 22.0252 69.48C18.9852 69.48 16.7185 68.2533 15.2252 65.8C13.7585 63.3467 13.0252 59.8267 13.0252 55.24C13.0252 50.44 13.8385 46.8 15.4652 44.32C17.0918 41.84 19.5985 40.6 22.9852 40.6C24.2918 40.6 25.4252 40.7733 26.3852 41.12C27.3452 41.4667 28.1585 41.9333 28.8252 42.52C29.5185 43.1067 30.0918 43.7733 30.5452 44.52C30.9985 45.24 31.3718 45.9733 31.6652 46.72L28.7852 48.04C28.5452 47.4267 28.2652 46.8533 27.9452 46.32C27.6518 45.76 27.2785 45.28 26.8252 44.88C26.3985 44.4533 25.8785 44.12 25.2652 43.88C24.6518 43.64 23.9318 43.52 23.1052 43.52C20.8652 43.52 19.2118 44.36 18.1452 46.04C17.1052 47.72 16.5852 49.96 16.5852 52.76V57.08C16.5852 58.4933 16.6918 59.7867 16.9052 60.96C17.1185 62.1067 17.4652 63.1067 17.9452 63.96C18.4518 64.8133 19.0918 65.48 19.8652 65.96C20.6652 66.4133 21.6385 66.64 22.7852 66.64C24.5985 66.64 26.0118 66.0933 27.0252 65C28.0385 63.9067 28.5452 62.4933 28.5452 60.76V57.88H22.6652V55.2H31.6652V69H28.5452V65.28ZM47.1295 69.48C45.6362 69.48 44.2895 69.2267 43.0895 68.72C41.9162 68.2133 40.9029 67.4933 40.0495 66.56C39.2229 65.6 38.5829 64.4667 38.1295 63.16C37.6762 61.8267 37.4495 60.3467 37.4495 58.72C37.4495 57.0667 37.6762 55.5733 38.1295 54.24C38.6095 52.9067 39.2629 51.7733 40.0895 50.84C40.9162 49.88 41.9029 49.1467 43.0495 48.64C44.2229 48.1333 45.5162 47.88 46.9295 47.88C48.3162 47.88 49.5695 48.1333 50.6895 48.64C51.8362 49.1467 52.8095 49.8533 53.6095 50.76C54.4095 51.64 55.0229 52.6933 55.4495 53.92C55.8762 55.1467 56.0895 56.4933 56.0895 57.96V59.48H40.8095V60.44C40.8095 61.3467 40.9562 62.1867 41.2495 62.96C41.5429 63.7333 41.9562 64.4 42.4895 64.96C43.0495 65.52 43.7162 65.96 44.4895 66.28C45.2895 66.5733 46.1695 66.72 47.1295 66.72C48.5162 66.72 49.7162 66.4 50.7295 65.76C51.7429 65.12 52.5162 64.24 53.0495 63.12L55.4095 64.72C54.7962 66.1067 53.7695 67.2533 52.3295 68.16C50.9162 69.04 49.1829 69.48 47.1295 69.48ZM46.9295 50.52C46.0495 50.52 45.2362 50.68 44.4895 51C43.7429 51.32 43.0895 51.76 42.5295 52.32C41.9962 52.88 41.5695 53.5467 41.2495 54.32C40.9562 55.0667 40.8095 55.8933 40.8095 56.8V57.08H52.6495V56.64C52.6495 55.7333 52.5029 54.9067 52.2095 54.16C51.9429 53.4133 51.5562 52.7733 51.0495 52.24C50.5695 51.68 49.9695 51.2533 49.2495 50.96C48.5562 50.6667 47.7829 50.52 46.9295 50.52ZM62.6739 69V48.36H65.8739V51.72H66.0339C66.2472 51.2133 66.5139 50.7333 66.8339 50.28C67.1539 49.8 67.5406 49.3867 67.9939 49.04C68.4739 48.6933 69.0339 48.4133 69.6739 48.2C70.3139 47.9867 71.0606 47.88 71.9139 47.88C74.0739 47.88 75.8072 48.5733 77.1139 49.96C78.4206 51.32 79.0739 53.2533 79.0739 55.76V69H75.8739V56.32C75.8739 54.4267 75.4606 53.0267 74.6339 52.12C73.8072 51.1867 72.5939 50.72 70.9939 50.72C70.3539 50.72 69.7272 50.8 69.1139 50.96C68.5006 51.12 67.9539 51.36 67.4739 51.68C66.9939 52 66.6072 52.4133 66.3139 52.92C66.0206 53.4267 65.8739 54.0133 65.8739 54.68V69H62.6739ZM96.0183 43.8C95.0849 43.8 94.4316 43.6133 94.0583 43.24C93.6849 42.84 93.4983 42.3467 93.4983 41.76V41.12C93.4983 40.5333 93.6849 40.0533 94.0583 39.68C94.4316 39.28 95.0849 39.08 96.0183 39.08C96.9516 39.08 97.6049 39.28 97.9783 39.68C98.3516 40.0533 98.5383 40.5333 98.5383 41.12V41.76C98.5383 42.3467 98.3516 42.84 97.9783 43.24C97.6049 43.6133 96.9516 43.8 96.0183 43.8ZM86.9783 66.28H94.4183V51.08H86.9783V48.36H97.6183V66.28H104.578V69H86.9783V66.28ZM118.723 69.48C117.283 69.48 115.976 69.2267 114.803 68.72C113.656 68.2133 112.669 67.4933 111.843 66.56C111.043 65.6 110.429 64.4667 110.003 63.16C109.576 61.8267 109.363 60.3333 109.363 58.68C109.363 57.0533 109.576 55.5733 110.003 54.24C110.429 52.9067 111.043 51.7733 111.843 50.84C112.669 49.88 113.656 49.1467 114.803 48.64C115.976 48.1333 117.283 47.88 118.723 47.88C120.163 47.88 121.456 48.1333 122.603 48.64C123.776 49.1467 124.763 49.88 125.563 50.84C126.389 51.7733 127.016 52.9067 127.443 54.24C127.869 55.5733 128.083 57.0533 128.083 58.68C128.083 60.3333 127.869 61.8267 127.443 63.16C127.016 64.4667 126.389 65.6 125.563 66.56C124.763 67.4933 123.776 68.2133 122.603 68.72C121.456 69.2267 120.163 69.48 118.723 69.48ZM118.723 66.72C120.509 66.72 121.949 66.1867 123.043 65.12C124.136 64.0533 124.683 62.4 124.683 60.16V57.2C124.683 54.96 124.136 53.3067 123.043 52.24C121.949 51.1733 120.509 50.64 118.723 50.64C116.936 50.64 115.496 51.1733 114.403 52.24C113.309 53.3067 112.763 54.96 112.763 57.2V60.16C112.763 62.4 113.309 64.0533 114.403 65.12C115.496 66.1867 116.936 66.72 118.723 66.72ZM134.227 41.08H143.707C146.107 41.08 147.987 41.7333 149.347 43.04C150.707 44.3467 151.387 46.0933 151.387 48.28C151.387 49.96 150.974 51.28 150.147 52.24C149.347 53.2 148.307 53.88 147.027 54.28V54.4C148.6 54.7733 149.894 55.48 150.907 56.52C151.92 57.5333 152.427 59.0133 152.427 60.96C152.427 62.08 152.24 63.1333 151.867 64.12C151.494 65.1067 150.96 65.96 150.267 66.68C149.6 67.4 148.8 67.9733 147.867 68.4C146.96 68.8 145.974 69 144.907 69H134.227V41.08ZM143.907 66.08C145.454 66.08 146.667 65.7333 147.547 65.04C148.427 64.3467 148.867 63.28 148.867 61.84V60.2C148.867 58.7867 148.427 57.7333 147.547 57.04C146.667 56.32 145.454 55.96 143.907 55.96H137.587V66.08H143.907ZM143.347 53.2C144.76 53.2 145.867 52.8933 146.667 52.28C147.467 51.64 147.867 50.68 147.867 49.4V47.84C147.867 46.56 147.467 45.6 146.667 44.96C145.867 44.32 144.76 44 143.347 44H137.587V53.2H143.347ZM166.691 69.48C165.251 69.48 163.945 69.2267 162.771 68.72C161.625 68.2133 160.638 67.4933 159.811 66.56C159.011 65.6 158.398 64.4667 157.971 63.16C157.545 61.8267 157.331 60.3333 157.331 58.68C157.331 57.0533 157.545 55.5733 157.971 54.24C158.398 52.9067 159.011 51.7733 159.811 50.84C160.638 49.88 161.625 49.1467 162.771 48.64C163.945 48.1333 165.251 47.88 166.691 47.88C168.131 47.88 169.425 48.1333 170.571 48.64C171.745 49.1467 172.731 49.88 173.531 50.84C174.358 51.7733 174.985 52.9067 175.411 54.24C175.838 55.5733 176.051 57.0533 176.051 58.68C176.051 60.3333 175.838 61.8267 175.411 63.16C174.985 64.4667 174.358 65.6 173.531 66.56C172.731 67.4933 171.745 68.2133 170.571 68.72C169.425 69.2267 168.131 69.48 166.691 69.48ZM166.691 66.72C168.478 66.72 169.918 66.1867 171.011 65.12C172.105 64.0533 172.651 62.4 172.651 60.16V57.2C172.651 54.96 172.105 53.3067 171.011 52.24C169.918 51.1733 168.478 50.64 166.691 50.64C164.905 50.64 163.465 51.1733 162.371 52.24C161.278 53.3067 160.731 54.96 160.731 57.2V60.16C160.731 62.4 161.278 64.0533 162.371 65.12C163.465 66.1867 164.905 66.72 166.691 66.72ZM191.676 69C190.102 69 188.942 68.56 188.196 67.68C187.476 66.8 187.116 65.6667 187.116 64.28V51.08H180.236V48.36H185.356C186.049 48.36 186.529 48.2267 186.796 47.96C187.089 47.6667 187.236 47.1733 187.236 46.48V41.08H190.316V48.36H199.716V51.08H190.316V66.28H199.716V69H191.676ZM214.66 69.36C213.567 69.36 212.793 69.1333 212.34 68.68C211.913 68.2267 211.7 67.6533 211.7 66.96V66.24C211.7 65.5467 211.913 64.9733 212.34 64.52C212.793 64.0667 213.567 63.84 214.66 63.84C215.753 63.84 216.513 64.0667 216.94 64.52C217.393 64.9733 217.62 65.5467 217.62 66.24V66.96C217.62 67.6533 217.393 68.2267 216.94 68.68C216.513 69.1333 215.753 69.36 214.66 69.36ZM239.925 43.8C238.991 43.8 238.338 43.6133 237.965 43.24C237.591 42.84 237.405 42.3467 237.405 41.76V41.12C237.405 40.5333 237.591 40.0533 237.965 39.68C238.338 39.28 238.991 39.08 239.925 39.08C240.858 39.08 241.511 39.28 241.885 39.68C242.258 40.0533 242.445 40.5333 242.445 41.12V41.76C242.445 42.3467 242.258 42.84 241.885 43.24C241.511 43.6133 240.858 43.8 239.925 43.8ZM230.885 66.28H238.325V51.08H230.885V48.36H241.525V66.28H248.485V69H230.885V66.28ZM262.629 69.48C261.189 69.48 259.882 69.2267 258.709 68.72C257.562 68.2133 256.576 67.4933 255.749 66.56C254.949 65.6 254.336 64.4667 253.909 63.16C253.482 61.8267 253.269 60.3333 253.269 58.68C253.269 57.0533 253.482 55.5733 253.909 54.24C254.336 52.9067 254.949 51.7733 255.749 50.84C256.576 49.88 257.562 49.1467 258.709 48.64C259.882 48.1333 261.189 47.88 262.629 47.88C264.069 47.88 265.362 48.1333 266.509 48.64C267.682 49.1467 268.669 49.88 269.469 50.84C270.296 51.7733 270.922 52.9067 271.349 54.24C271.776 55.5733 271.989 57.0533 271.989 58.68C271.989 60.3333 271.776 61.8267 271.349 63.16C270.922 64.4667 270.296 65.6 269.469 66.56C268.669 67.4933 267.682 68.2133 266.509 68.72C265.362 69.2267 264.069 69.48 262.629 69.48ZM262.629 66.72C264.416 66.72 265.856 66.1867 266.949 65.12C268.042 64.0533 268.589 62.4 268.589 60.16V57.2C268.589 54.96 268.042 53.3067 266.949 52.24C265.856 51.1733 264.416 50.64 262.629 50.64C260.842 50.64 259.402 51.1733 258.309 52.24C257.216 53.3067 256.669 54.96 256.669 57.2V60.16C256.669 62.4 257.216 64.0533 258.309 65.12C259.402 66.1867 260.842 66.72 262.629 66.72Z" fill="#FFB801"/>
<path d="M65.4525 20.2315C65.5574 20.6718 67.4106 18.905 67.1175 19.6103C65.3469 23.871 57.5807 31.9723 56.5423 34.2466C55.3321 36.8974 33.7418 43.9695 33.2836 42.9998C33.0473 42.4997 32.7844 41 31.2844 37.9999C30.7842 36.5 30.785 36.4999 30.2842 34.5C29.7833 32.5001 44.7937 32.8551 53.9785 29.6853C63.0241 23.2398 65.7897 17.7503 66.9204 17.0166C67.2531 16.8006 65.2846 19.5266 65.4525 20.2315Z" fill="url(#paint0_linear)"/>
<path d="M38.0818 63.7423C38.0818 76.2817 36.7665 87.903 34.5256 97.4413C30.9714 112.57 12.0365 117.609 5.18245 125.429C-1.47291 125.429 25.8717 112.57 22.3175 97.4413C15.4635 89.1022 2.75809 76.2817 2.75809 63.7423C2.75809 56.4848 0.799157 49.6365 2.75809 43.2945C3.29952 41.5416 3.83676 39.8274 4.32613 38.1539C6.26203 31.5339 7.44881 25.5514 5.18245 20.3335C8.67398 10.8242 13.3373 5.02612 18.4336 5.02612C23.5298 5.02612 28.1729 10.8242 31.6644 20.3335C28.1478 24.9989 29.4186 31.1444 31.7228 38.1539C32.2709 39.8213 32.8775 41.5376 33.492 43.2945C35.734 49.7041 38.0818 56.6542 38.0818 63.7423Z" fill="url(#paint1_linear)"/>
<path d="M7.69826 16.0925C7.70756 16.4456 7.7261 16.8079 7.87487 17.1331C8.25608 17.9413 9.26026 18.2015 10.1436 18.3501C15.1923 19.1956 20.3527 19.4836 25.4294 18.8426C26.0988 18.7589 26.7683 18.6567 27.382 18.378C27.9956 18.0993 28.5442 17.6255 28.7674 17.003C28.9068 16.6035 28.9161 16.1762 28.9254 15.7488C28.9347 15.3214 28.9347 14.8848 28.944 14.4574C28.944 14.2623 28.944 14.0672 28.8696 13.8814C28.786 13.6863 28.6186 13.5283 28.442 13.4076C27.7725 12.9523 26.9264 12.8501 26.1175 12.7665C20.7433 12.2277 15.304 11.7538 9.95765 12.4785C9.7345 12.5064 9.50202 12.5435 9.34396 12.7015C9.26028 12.7758 9.2045 12.878 9.12082 12.9523C8.96275 13.0731 8.74892 13.0638 8.56296 13.1289C8.04228 13.2961 7.8563 13.9372 7.79122 14.4853C7.71683 15.0149 7.68896 15.5537 7.69826 16.0925Z" fill="#2F3F47"/>
<path d="M23.2038 78.8479C22.7547 78.9038 24.307 80.94 23.6382 80.5711C19.598 78.3428 12.3998 69.7329 10.2535 68.4507C8.25623 67.2577 2.51332 51.7293 1.7854 45C1.60156 43.3005 4.03759 41.3768 4.24209 41.3064C4.71581 41.1435 5.69929 40.3665 7.27144 42.5C9.06521 44.9342 11.6253 51.1572 15.069 66.404C20.4808 76.1035 25.6329 79.4559 26.2379 80.6604C26.4159 81.0149 23.9229 78.7585 23.2038 78.8479Z" fill="url(#paint2_linear)"/>
<path d="M16.9501 3.42702C16.9501 5.25661 19.5775 5.94016 19.4633 5.59746C19.349 5.25476 16.6074 5.25661 16.6074 3.42702C16.6074 1.59742 16.8001 0 17.1786 0C16.9432 0.228468 16.9501 1.59742 16.9501 3.42702Z" fill="#FFB801"/>
<path d="M20.647 3.44448C20.647 5.2834 18.3379 5.97043 18.4383 5.62598C18.5387 5.28153 20.9482 5.2834 20.9482 3.44448C20.9482 1.60556 20.7789 0 20.4462 0C20.6531 0.229632 20.647 1.60556 20.647 3.44448Z" fill="#FFB801"/>
<ellipse cx="13.2924" cy="15.7642" rx="1.48504" ry="1.14234" fill="#23DBBD"/>
<ellipse cx="23.3442" cy="15.7642" rx="1.48504" ry="1.14234" fill="#23DBBD"/>
<path d="M25.5166 20.9048C25.5166 21.031 21.6603 22.6183 17.7487 22.6183C13.8372 22.6183 10.552 20.9167 10.552 20.7905C10.552 20.6643 13.8372 22.1613 17.7487 22.1613C21.6603 22.1613 25.5166 20.7786 25.5166 20.9048Z" fill="url(#paint3_linear)"/>
<g filter="url(#filter0_d)">
<path d="M145.732 110.81C145.324 112.191 143.047 112.457 140.278 111.17C138.783 110.475 135.115 109.048 134.581 106.452C135.673 104.908 139.329 101.833 137.791 100.029C137.808 98.1911 129.589 97.3335 128.982 99.9461C128.317 102.811 134.802 106.799 130.234 106.997C125.789 108.961 123.833 111.305 121.429 111.283C119.124 111.261 116.958 111.241 115.618 109.772C111.295 107.27 105.462 104.042 100.945 105.751C100.936 106.722 102.999 107.711 102.999 107.711C104.164 108.081 104.544 108.761 106.09 109.683C107.631 111.153 109.179 111.492 110.521 112.664C113.59 115.344 118.786 116.522 120.86 120.231C121.32 122.932 126.693 122.983 126.693 122.983C126.693 122.983 128.907 123.003 130.084 123.015C132.131 123.034 133.823 123.05 135.666 123.067C136.781 123.077 137.895 123.088 139.01 123.098C140.174 123.109 139.652 122.602 140.749 121.658C141.742 120.805 142.282 120.925 142.969 120.735C143.657 120.546 143.909 120.744 145.246 120.46C147.204 120.044 147.316 119.944 148.051 119.534C149.165 118.911 149.525 118.845 150.384 118.001C150.759 117.634 153.546 115.494 153.919 114.986C156.393 111.611 160.09 106.306 155.726 106.265C153.634 106.245 151.255 106.143 149.407 107.177C148.701 107.572 145.955 110.057 145.732 110.81ZM145.732 110.81C145.014 113.237 147.343 119.799 149.512 121.102C150.355 121.608 152.199 123.462 150.353 121.371C149.066 119.914 149.31 117.545 148.085 115.907C146.99 113.707 148.213 112.45 149.091 110.734C150.1 108.764 153.083 108.051 155.439 108.204C157.248 108.322 155.695 109.636 153.95 111.588C152.636 113.059 152.626 113.035 151.746 113.752C150.866 114.469 149.381 115.896 148.842 116.95" stroke="url(#paint4_linear)" stroke-width="0.5" stroke-linecap="round" stroke-linejoin="round"/>
</g>
<path d="M102.132 104.313C102.132 101.178 102.537 99.4229 99.9704 97.3228C98.2439 95.9102 94.87 95.1953 92.6761 95.1953C84.0683 95.1953 69.0692 101.152 77.5136 112.08C80.2073 115.566 86.3737 114.776 90.1772 114.647C93.0693 114.549 92.1343 107.132 91.1903 105.191C88.9765 100.64 81.4218 98.4417 76.872 97.289C70.6518 95.7132 61.122 95.348 55.327 98.032C48.609 101.143 43.0442 105.214 42.0555 112.958C41.5283 117.088 42.214 123.989 47.4587 124.338C48.6369 124.417 51.5718 124.935 52.4228 123.832C54.0427 121.732 54.4887 118.554 54.6854 115.997C55.091 110.724 51.2145 107.96 45.939 107.96C40.5851 107.96 39.8311 110.682 36.6186 114.376C32.7035 118.879 28.6243 120.347 23.2459 122.076C21.7865 122.545 21.0145 123.62 19.3624 123.731C17.1366 123.879 14.8732 123.764 12.6422 123.764C10.0995 123.764 8.15258 123.263 7.30664 120.725" stroke="url(#paint5_linear)" stroke-linecap="round" stroke-linejoin="round"/>
<defs>
<filter id="filter0_d" x="96.5332" y="97.7476" width="65.5531" height="33.7774" filterUnits="userSpaceOnUse" color-interpolation-filters="sRGB">
<feFlood flood-opacity="0" result="BackgroundImageFix"/>
<feColorMatrix in="SourceAlpha" type="matrix" values="0 0 0 0 0 0 0 0 0 0 0 0 0 0 0 0 0 0 127 0"/>
<feOffset dy="4"/>
<feGaussianBlur stdDeviation="2"/>
<feColorMatrix type="matrix" values="0 0 0 0 0 0 0 0 0 0 0 0 0 0 0 0 0 0 0.25 0"/>
<feBlend mode="normal" in2="BackgroundImageFix" result="effect1_dropShadow"/>
<feBlend mode="normal" in="SourceGraphic" in2="effect1_dropShadow" result="shape"/>
</filter>
<linearGradient id="paint0_linear" x1="48.0752" y1="25.6768" x2="53.1998" y2="36.5217" gradientUnits="userSpaceOnUse">
<stop stop-color="white"/>
<stop offset="1" stop-color="white" stop-opacity="0"/>
</linearGradient>
<linearGradient id="paint1_linear" x1="19.9846" y1="5.02612" x2="19.9846" y2="125.429" gradientUnits="userSpaceOnUse">
<stop stop-color="white"/>
<stop offset="1" stop-color="white" stop-opacity="0"/>
</linearGradient>
<linearGradient id="paint2_linear" x1="19.0259" y1="59.687" x2="7.22493" y2="63.7457" gradientUnits="userSpaceOnUse">
<stop stop-color="white"/>
<stop offset="1" stop-color="white" stop-opacity="0"/>
</linearGradient>
<linearGradient id="paint3_linear" x1="26.1492" y1="20.9252" x2="25.4205" y2="25.5844" gradientUnits="userSpaceOnUse">
<stop stop-color="#FF7144" stop-opacity="0.01"/>
<stop offset="0.0949252" stop-color="#FF8979"/>
<stop offset="0.239409" stop-color="#FF4DCA"/>
<stop offset="0.442535" stop-color="#E930FF"/>
<stop offset="0.940665" stop-color="#E44D88"/>
<stop offset="0.970958" stop-color="#E34E81" stop-opacity="0.594203"/>
<stop offset="1" stop-color="#E3507A" stop-opacity="0.01"/>
</linearGradient>
<linearGradient id="paint4_linear" x1="131.681" y1="134.443" x2="115.862" y2="96.4866" gradientUnits="userSpaceOnUse">
<stop stop-color="#C16364" stop-opacity="0.01"/>
<stop offset="0.0498344" stop-color="#C16C67" stop-opacity="0.558792"/>
<stop offset="0.0884448" stop-color="#C17168"/>
<stop offset="0.124227" stop-color="#C1756A"/>
<stop offset="0.836363" stop-color="#C1DE8B"/>
<stop offset="0.871495" stop-color="#C1E98F"/>
<stop offset="0.929393" stop-color="#C1EF91"/>
<stop offset="1" stop-color="#C1F793" stop-opacity="0.01"/>
</linearGradient>
<linearGradient id="paint5_linear" x1="54.7308" y1="95.1953" x2="54.7308" y2="124.528" gradientUnits="userSpaceOnUse">
<stop stop-color="white"/>
<stop offset="1" stop-color="white" stop-opacity="0"/>
</linearGradient>
</defs>
</svg>
